<svg xmlns="http://www.w3.org/2000/svg" version="1.1" xmlns:xlink="http://www.w3.org/1999/xlink" width="512" height="512" x="0" y="0" viewBox="0 0 24 24" style="enable-background:new 0 0 512 512" xml:space="preserve" class=""><g><path d="m7.3 5 2-1.8c.4-.4.4-1 .1-1.4-.4-.4-1-.5-1.4-.1L5.2 4.2c-.2.2-.3.5-.3.7 0 .3.1.5.3.7l2.7 2.8c.2.2.5.3.7.3.3 0 .5-.1.7-.3.4-.4.4-1 0-1.4z" fill="#000000" opacity="1" data-original="#000000"></path><path d="M3.5 9.8c-.3.9-.5 1.8-.5 2.7 0 1.1.1 2.3.5 3.3.9 2.6 2.9 4.6 5.5 5.5 1 .3 2 .5 3 .5 1.2 0 2.5-.3 3.6-.8 2.3-1 4.1-2.9 4.9-5.2s.7-4.7-.4-6.9-2.8-3.8-5.1-4.6c-.9-.3-1.7-.5-2.6-.5l.8-.7c.4-.4.4-1 0-1.4s-1-.4-1.4 0L9 4.2c-.1.2-.3.4-.3.7s.1.5.3.7l2.8 2.7c.2.2.4.3.7.3s.5-.1.7-.3c.4-.4.4-1 0-1.4L12 5.8c.8 0 1.5.1 2.3.4 1.8.6 3.2 1.9 4 3.6s.9 3.6.3 5.4-2 3.3-3.8 4.1c-1.6.7-3.4.8-5.1.2-2-.7-3.6-2.3-4.3-4.3-.3-.9-.4-1.8-.4-2.7 0-.7.2-1.4.4-2.1.2-.5-.1-1.1-.6-1.3-.5-.1-1.1.2-1.3.7z" fill="#000000" opacity="1" data-original="#000000"></path><path d="M10.4 16v-5.7H8.2v1.2H9V16zM13.7 14.8c-.2 0-.4-.1-.5-.2s-.2-.2-.2-.4h-1.3c0 .3.1.6.3.9s.4.5.7.6.7.2 1.1.2c.6 0 1.1-.2 1.5-.5.4-.4.5-.8.5-1.5 0-.3-.1-.6-.2-.9s-.3-.5-.6-.7-.6-.3-1-.3c-.2 0-.4 0-.6.1s-.3.2-.4.3v-1.1h2.5v-1.2h-3.7v3.4H13c0-.1.1-.3.2-.3.1-.1.3-.1.4-.1.2 0 .4.1.6.2s.2.3.2.6-.1.5-.2.6c0 .3-.2.3-.5.3z" fill="#000000" opacity="1" data-original="#000000"></path></g></svg>