<svg xmlns="http://www.w3.org/2000/svg" version="1.1" xmlns:xlink="http://www.w3.org/1999/xlink" width="512" height="512" x="0" y="0" viewBox="0 0 24 24" style="enable-background:new 0 0 512 512" xml:space="preserve" class=""><g><path d="m16.7 5-2 2c-.4.4-.4 1 0 1.4.2.2.4.3.7.3s.5-.1.7-.3l2.7-2.8c.2-.2.3-.5.3-.7 0-.3-.1-.5-.3-.7L16 1.7c-.4-.4-1-.3-1.4.1s-.3 1 .1 1.4z" fill="#000000" opacity="1" data-original="#000000" class=""></path><path d="M8.4 21c1.2.5 2.4.8 3.6.8 1 0 2-.2 3-.5 2.6-.9 4.6-2.9 5.5-5.5.4-1 .5-2.2.5-3.3 0-.9-.2-1.8-.5-2.7-.2-.5-.8-.8-1.3-.6s-.8.8-.6 1.3c.2.7.4 1.4.4 2.1 0 .9-.1 1.8-.4 2.6-.7 2-2.3 3.6-4.3 4.3-1.7.6-3.5.5-5.1-.2-1.8-.8-3.1-2.2-3.8-4.1-1.3-3.7.6-7.7 4.3-9 .7-.3 1.5-.4 2.3-.4l-1.2 1.1c-.4.4-.4 1 0 1.4.2.2.5.3.7.3.3 0 .5-.1.7-.3L15 5.6c.2-.2.3-.5.3-.7s-.2-.5-.3-.7l-2.7-2.6c-.4-.4-1-.4-1.4 0s-.4 1 0 1.4l.8.7c-1 .1-1.8.3-2.7.6C4.3 6 1.9 11.1 3.5 15.8c.8 2.3 2.6 4.2 4.9 5.2z" fill="#000000" opacity="1" data-original="#000000" class=""></path><path d="M10.4 16v-5.7H8.2v1.2H9V16zM13.7 14.8c-.2 0-.4-.1-.5-.2s-.2-.2-.2-.4h-1.3c0 .3.1.6.3.9s.4.5.7.6.7.2 1.1.2c.6 0 1.1-.2 1.5-.5.4-.4.5-.8.5-1.5 0-.3-.1-.6-.2-.9s-.3-.5-.6-.7-.6-.3-1-.3c-.2 0-.4 0-.6.1s-.3.2-.4.3v-1.1h2.5v-1.2h-3.7v3.4H13c0-.1.1-.3.2-.3.1-.1.3-.1.4-.1.2 0 .4.1.6.2s.2.3.2.6-.1.5-.2.6c0 .3-.2.3-.5.3z" fill="#000000" opacity="1" data-original="#000000" class=""></path></g></svg>