<svg xmlns="http://www.w3.org/2000/svg" version="1.1" xmlns:xlink="http://www.w3.org/1999/xlink" width="512" height="512" x="0" y="0" viewBox="0 0 64 64" style="enable-background:new 0 0 512 512" xml:space="preserve" class=""><g><path d="M56.79 16.09C43.34-2.32 14.39 3.71 9 25.46l-3.23-6.19a2 2 0 0 0-3.54 1.87l6.22 11.79A2.07 2.07 0 0 0 10.26 34a2.35 2.35 0 0 0 .9-.23L23 27.55A2 2 0 0 0 21.08 24l-8.6 4.54c3-19.93 29-26.54 41.08-10.09 11.11 14.82.09 36.59-18.45 36.43a22.73 22.73 0 0 1-13.54-4.44 2 2 0 1 0-2.37 3.22 26.62 26.62 0 0 0 15.91 5.22c21.78.19 34.73-25.38 21.68-42.79z" data-name="Layer 14" fill="#000000" opacity="1" data-original="#000000" class=""></path></g></svg>